<svg width="14" height="8" viewBox="0 0 14 8" fill="none" xmlns="http://www.w3.org/2000/svg">
<path d="M0.992005 0.464339C1.17953 0.276868 1.43384 0.171552 1.69901 0.171552C1.96417 0.171552 2.21848 0.276868 2.40601 0.464339L7.35601 5.41434L12.306 0.464339C12.4946 0.282181 12.7472 0.181386 13.0094 0.183665C13.2716 0.185943 13.5224 0.291112 13.7078 0.47652C13.8932 0.661928 13.9984 0.912741 14.0007 1.17494C14.003 1.43713 13.9022 1.68974 13.72 1.87834L8.063 7.53534C7.87548 7.72281 7.62117 7.82813 7.35601 7.82813C7.09084 7.82813 6.83653 7.72281 6.64901 7.53534L0.992005 1.87834C0.804534 1.69081 0.699219 1.4365 0.699219 1.17134C0.699219 0.906174 0.804534 0.651866 0.992005 0.464339Z" fill="#404040" fill-opacity="0.5"/>
</svg>
