<svg width="18" height="14" viewBox="0 0 18 14" fill="none" xmlns="http://www.w3.org/2000/svg">
<path d="M9.37699 0.728516C4.00128 0.728516 1.4488 5.33654 0.829555 6.65186C0.726086 6.87134 0.726086 7.12591 0.829555 7.34539C1.4488 8.66149 4.00128 13.2703 9.37699 13.2703C14.7339 13.2703 17.2881 8.69483 17.9183 7.3607C18.0265 7.13103 18.0265 6.86775 17.9183 6.63808C17.2881 5.30395 14.7339 0.728516 9.37699 0.728516ZM9.37699 3.08009C11.5412 3.08009 13.2963 4.83516 13.2963 6.99939C13.2963 9.16363 11.5412 10.9187 9.37699 10.9187C7.21276 10.9187 5.4577 9.16363 5.4577 6.99939C5.4577 4.83516 7.21276 3.08009 9.37699 3.08009ZM9.37699 4.64781C8.75332 4.64781 8.15518 4.89557 7.71418 5.33658C7.27317 5.77758 7.02541 6.37572 7.02541 6.99939C7.02541 7.62307 7.27317 8.2212 7.71418 8.66221C8.15518 9.10322 8.75332 9.35097 9.37699 9.35097C10.0007 9.35097 10.5988 9.10322 11.0398 8.66221C11.4808 8.2212 11.7286 7.62307 11.7286 6.99939C11.7286 6.37572 11.4808 5.77758 11.0398 5.33658C10.5988 4.89557 10.0007 4.64781 9.37699 4.64781Z" fill="#6E757C"/>
</svg>
